<svg version="1.1" id="Layer_1" xmlns="http://www.w3.org/2000/svg" xmlns:xlink="http://www.w3.org/1999/xlink" x="0px" y="0px" viewBox="0 0 221.6 55.4" style="enable-background:new 0 0 221.6 55.4;" xml:space="preserve">
 <style type="text/css">
  .st0{fill:#009AD9;}
	.st1{fill:#FFFFFF;}
 </style>
 <g>
  <path class="st0" d="M60.1,0H0v9.2h57.1v0c1.7,0,3,1.3,3,3v31l0,0c0,1.6-1.3,3-3,3H12.2c-1.6,0-3-1.3-3-3V30.7c0-1.6,1.3-3,3-3
		h38.6v-9.2H9.2c-5.1,0-9.2,4.1-9.2,9.2v18.5c0,5.1,4.1,9.2,9.2,9.2h50.9c5.1,0,9.2-4.1,9.2-9.2v-37C69.3,4.1,65.1,0,60.1,0">
  </path>
  <path class="st1" d="M103.4,13.1l7.2,21.5c0.9,2.6,1.5,3.2,3,3.2h1.5v3.8H99.3v-3.8h1.3c1.3,0,2.4-0.2,2.4-0.6c0-0.4,0-0.9-0.2-1.6
		l-0.9-3.1H93l-0.5,1.7c-0.5,1.5-0.6,2.1-0.6,2.7c0,0.7,1.5,0.8,2.7,0.8h1.2v3.8H83.1v-3.8h1.5c1.5,0,2.1-0.6,3-3.2l7.2-21.5
		 M94.3,28.8h6.2l-3.1-9.3h-0.1L94.3,28.8z">
  </path>
  <path class="st1" d="M117.5,18.4c0-1.2-0.3-1.9-1.5-1.9h-2v-3.4h10.7v10.7c1.6-1.8,3.6-3,5.5-3c6.5,0,8.9,5,8.9,10.7
		c0,5.7-2.4,10.7-8.9,10.7c-2.7,0-5.1-0.9-6.6-3.3l-1.2,2.7h-4.8 M124.6,31.5c0,4.4,1,7,3.4,7c2.4,0,3.4-2.6,3.4-7c0-4.4-1-7-3.4-7
		C125.6,24.5,124.6,27.2,124.6,31.5">
  </path>
  <path class="st1" d="M141.6,18.4c0-1.2-0.3-1.9-1.5-1.9h-2v-3.4h10.7v10.7c1.6-1.8,3.6-3,5.6-3c6.5,0,8.9,5,8.9,10.7
		c0,5.7-2.4,10.7-8.9,10.7c-2.7,0-5.1-0.9-6.6-3.3l-1.3,2.7h-4.8 M148.8,31.5c0,4.4,1,7,3.4,7c2.4,0,3.4-2.6,3.4-7c0-4.4-1-7-3.4-7
		C149.8,24.5,148.8,27.2,148.8,31.5">
  </path>
  <path class="st1" d="M187.5,31.5c0,6.9-4.7,10.7-11.1,10.7c-6.4,0-11.1-3.8-11.1-10.7c0-6.9,4.7-10.7,11.1-10.7
		C182.8,20.8,187.5,24.7,187.5,31.5 M172.9,31.5c0,5.1,0.9,7.3,3.5,7.3c2.6,0,3.5-2.2,3.5-7.3c0-5.1-0.9-7.3-3.5-7.3
		C173.8,24.3,172.9,26.5,172.9,31.5">
  </path>
  <path class="st1" d="M218.2,31.9v3.4c0,2-0.4,3.1-2.1,3.1c-1,0-1.5-0.7-1.5-1.6V24.9h5.3v-3.4h-5.3v-8h-4.3c-0.3,3.6-1.5,8-5.8,8
		h-6.7v-8h-4.3c-0.3,3.6-1.5,8-5.8,8v3.4h2.9v10.8c0,4.4,2.5,6.5,6.9,6.5c5.2,0,7.2-2.3,7.2-6.5v-3.8h-3.4v3.4c0,2-0.4,3.2-2.1,3.2
		c-1,0-1.5-0.7-1.5-1.6V24.9h9.6v10.8c0,4.4,2.4,6.5,6.9,6.5c5.2,0,7.2-2.3,7.2-6.5v-3.8H218.2">
  </path>
 </g>
</svg>