<svg xmlns="http://www.w3.org/2000/svg" x="0px" y="0px" width="250px" height="76.97px">
<path fill="#8C7F70" d="M86.78,11.04c-0.47-1.49-1.26-3.29-3.43-3.29c-1.71,0-2.63,1.23-2.63,2.7c0,1.44,1.03,2.39,3.02,3.29
	l0.67,0.31c2.01,0.9,3.87,2.26,3.87,4.94c0,3.06-2.4,5.22-5.89,5.22c-0.98,0-1.91-0.21-2.58-0.44c-0.72-0.23-1.19-0.44-1.5-0.54
	c-0.21-0.67-0.52-2.42-0.77-3.99l0.77-0.26c0.52,1.34,1.91,4.19,4.57,4.19c1.68,0,2.71-1.31,2.71-2.91c0-1.44-0.69-2.47-2.74-3.47
	l-0.83-0.41c-1.7-0.88-3.87-2.24-3.87-4.76c0-2.7,2.04-4.92,5.5-4.92c0.7,0,1.63,0.1,2.35,0.36c0.41,0.15,0.77,0.21,1.08,0.33
	c0.1,0.9,0.26,2.03,0.52,3.47L86.78,11.04z M95.95,21.92c-0.57,0.33-1.16,0.47-1.57,0.47c-0.52,0-1.47-0.36-1.47-2.54v-6.88h2.51
	c0.36-0.22,0.46-0.95,0.15-1.28H92.9V8.14h-0.49c-0.26,0.49-0.93,1.52-2.17,1.88v1.67h-1.75v1.28h1.75v7.83
	c0,2.31,0.96,3.32,2.89,3.32c0.21,0,0.47-0.05,0.85-0.28l2.27-1.23L95.95,21.92z M232.31,42.98c-0.57,0.33-1.16,0.48-1.57,0.48
	c-0.52,0-1.47-0.36-1.47-2.54v-6.89h2.51c0.36-0.22,0.47-0.95,0.16-1.28h-2.66V29.2h-0.49c-0.26,0.49-0.93,1.51-2.17,1.88v1.67
	h-1.75v1.28h1.75v7.83c0,2.31,0.96,3.32,2.89,3.32c0.21,0,0.47-0.05,0.85-0.28l2.27-1.23L232.31,42.98z M97.16,22.12
	c0,1.23,0.77,2.01,1.75,2.01c1.03,0,1.81-0.78,1.81-2.01c0-1.11-0.78-1.95-1.81-1.95C97.93,20.17,97.16,21.01,97.16,22.12
	 M108.47,18.5c0,1.9-0.05,3.51-0.31,4.85c-0.31,1.48-0.98,2.73-2.71,3.6l0.31,0.78c1.24-0.34,2.27-0.92,3.1-1.59
	c2.27-1.81,2.5-4.24,2.5-7.27v-7.3c0-3.01,0.21-3.23,2.04-3.4V7.38h-7.28v0.78c2.14,0.17,2.35,0.39,2.35,3.4V18.5z M117.17,11.5
	c-1.16,0.14-3.12,0.45-4.18,0.5v0.67l0.7,0.17c0.57,0.11,0.83,0.25,0.83,1.28v6.24c0,2.43,1.29,3.76,3.36,3.76
	c0.72,0,1.34-0.28,2.14-0.81c0.57-0.39,1.08-0.81,1.6-1.23v1.81l0.21,0.22c1.21-0.33,2.92-0.84,4.29-1v-0.78h-0.98
	c-0.7,0-0.85-0.19-0.85-1.37V11.5c-1.11,0.14-3.2,0.45-4.41,0.5v0.67l0.72,0.14c0.88,0.17,1.03,0.28,1.03,1.31v6.91
	c-0.82,0.78-1.68,1.14-2.45,1.14c-0.98,0-1.99-0.61-1.99-2.68V11.5z M137.12,6.5c-1.34,0.33-3.17,0.72-4.49,0.95v0.72
	c1.78,0.11,1.83,0.17,1.83,1.76v1.57c-0.6-0.08-1.01-0.14-1.27-0.14c-4,0-6.89,3.04-6.89,6.75c0,4.1,2.94,6.02,5.19,6.02
	c0.26,0,0.62-0.11,1.11-0.42l1.86-1.14v1.62c1.78-0.67,4.02-1,4.49-1.11v-0.78H138c-0.72,0-0.88-0.14-0.88-1.36V6.5z M134.47,21.59
	c-0.6,0.45-1.24,0.69-1.94,0.69c-1.34,0-3.17-1.48-3.17-4.85c0-4.38,2.17-4.91,2.89-4.91c0.93,0,1.76,0.36,2.22,1.25V21.59z
	 M148.38,20.78c-1.01,0.84-1.84,1.17-2.71,1.17c-1.93,0-3.97-1.45-3.92-4.96c2.81-0.11,6.14-0.39,6.5-0.45
	c0.49-0.11,0.54-0.17,0.54-1.2c0-2.01-1.68-3.99-3.84-3.99c-3.41,0-5.81,3.43-5.76,6.91c0.05,3.26,2.04,5.85,5.42,5.85
	c0.72,0,2.66-0.56,4.13-2.87L148.38,20.78z M141.88,15.85c0.21-2.09,1.29-3.4,2.38-3.4c1.14,0,1.94,1.45,1.94,2.56
	c0,0.61-0.11,0.78-0.46,0.78L141.88,15.85z M169.75,11.35c-0.15-1.5-0.26-2.64-0.46-4.1c-0.72-0.15-2.43-0.67-4.65-0.67
	c-5.78,0-9.96,3.65-9.96,9.1c0,4.1,2.74,8.53,9.5,8.53c1.81,0,4.13-0.57,4.85-0.78c0.41-0.99,0.98-3.06,1.29-4.3l-0.72-0.16
	c-1.34,2.75-2.63,4.2-5.42,4.2c-3.77,0-6.14-3.34-6.14-8.17c0-3.84,1.91-7.39,6.14-7.39c2.4,0,4.03,0.88,4.85,3.84L169.75,11.35z
	 M174.74,6.65c-1.34,0.33-3.25,0.78-4.34,0.95v0.72c1.62,0.11,1.68,0.17,1.68,1.76v11.06c0,1.59-0.16,1.7-1.73,1.87v0.78h5.78v-0.78
	c-1.24-0.17-1.39-0.28-1.39-1.87v-6.91c0.59-0.67,1.47-1,2.22-1c1.44,0,2.27,0.95,2.27,2.9v5.02c0,1.59-0.16,1.7-1.47,1.87v0.78
	h5.65v-0.78c-1.37-0.17-1.52-0.28-1.52-1.87v-5.69c0-2.54-1.29-4.1-3.66-4.1c-1.29,0.05-2.58,0.89-3.49,1.81V6.65z M187.8,11.3
	c-1.34,0.45-3.05,0.84-4.31,1.06v0.64c1.6,0.17,1.65,0.22,1.65,1.92v6.21c0,1.53-0.1,1.7-1.76,1.87v0.78h6.19v-0.78
	c-1.62-0.17-1.78-0.34-1.78-1.87V11.3z M188.05,8.21c0-1.06-0.77-1.84-1.68-1.84c-0.88,0-1.65,0.78-1.65,1.84
	c0,0.98,0.77,1.76,1.65,1.76C187.28,9.97,188.05,9.19,188.05,8.21 M193.95,6.65c-1.37,0.33-3.28,0.78-4.39,0.95v0.72
	c1.68,0.17,1.73,0.17,1.73,1.81v11.01c0,1.53-0.16,1.7-1.76,1.87v0.78h6.2v-0.78c-1.68-0.17-1.78-0.34-1.78-1.87V6.65z M206.06,6.65
	c-1.34,0.33-3.17,0.73-4.49,0.95v0.72c1.78,0.11,1.83,0.17,1.83,1.76v1.42c-0.59-0.08-1-0.14-1.26-0.14c-4,0-6.89,3.04-6.89,6.75
	c0,4.1,2.94,6.02,5.19,6.02c0.26,0,0.62-0.11,1.11-0.42l1.86-1.14v1.62c1.78-0.67,4.03-1,4.49-1.11v-0.78h-0.96
	c-0.72,0-0.88-0.14-0.88-1.36V6.65z M203.4,21.59c-0.59,0.45-1.24,0.69-1.93,0.69c-1.34,0-3.17-1.48-3.17-4.85
	c0-4.38,2.17-4.91,2.89-4.91c0.93,0,1.75,0.36,2.22,1.25V21.59z M212.64,11.3c-1.34,0.45-3.05,0.84-4.31,1.06v0.64
	c1.6,0.17,1.65,0.22,1.65,1.92v6.21c0,1.53-0.15,1.7-1.68,1.87v0.78h6.38v-0.78c-1.88-0.17-2.04-0.34-2.04-1.87v-5.63
	c0.57-1.23,1.16-1.56,1.6-1.56c0.41,0,0.83,0.22,1.19,0.61c0.15,0.17,0.47,0.22,0.75,0.11c0.59-0.25,1.06-1.06,1.06-1.75
	c0-0.78-0.67-1.62-1.6-1.62c-1.27,0-2.3,1.76-2.92,2.81h-0.08V11.3z M226.18,20.78c-1.01,0.84-1.83,1.17-2.71,1.17
	c-1.94,0-3.98-1.45-3.92-4.96c2.81-0.11,6.14-0.39,6.51-0.45c0.49-0.11,0.54-0.17,0.54-1.2c0-2.01-1.68-3.99-3.85-3.99
	c-3.41,0-5.81,3.43-5.75,6.91c0.05,3.26,2.04,5.85,5.42,5.85c0.72,0,2.66-0.56,4.13-2.87L226.18,20.78z M219.68,15.85
	c0.21-2.09,1.29-3.4,2.38-3.4c1.14,0,1.94,1.45,1.94,2.56c0,0.61-0.1,0.78-0.47,0.78L219.68,15.85z M230.94,11.3
	c-1.34,0.45-3.05,0.84-4.31,1.06v0.64c1.6,0.17,1.65,0.22,1.65,1.92v6.27c0,1.53-0.15,1.65-1.83,1.81v0.78h5.93v-0.78
	c-1.29-0.17-1.44-0.28-1.44-1.81v-6.83c0.72-0.67,1.57-1.14,2.35-1.14c1.34,0,2.09,0.92,2.09,2.59v5.38c0,1.53-0.11,1.65-1.57,1.81
	v0.78h5.78v-0.78c-1.44-0.17-1.55-0.28-1.55-1.81v-6.16c0-2.12-1.24-3.68-3.33-3.68c-0.8,0-1.44,0.31-2.27,0.89
	c-0.46,0.33-0.98,0.7-1.5,1.03V11.3z M239.89,12.08c2.24-1.51,1.9-3.64,0.74-4.27c-0.51-0.27-1.34-0.22-1.66,0.48
	c-0.23,0.5-0.1,0.78-0.07,0.9c0.2,0.83,1.66,1.07,0.76,2.72L239.89,12.08z M240.59,19.75c-0.03,1.11,0.2,2.87,0.36,3.26
	c0.49,0.5,1.78,1.11,3.15,1.11c2.12,0,4.52-1.23,4.52-3.99c0-2.03-1.44-3.18-3.38-3.96c-1.11-0.44-2.01-1.2-2.01-2.12
	c0-0.89,0.59-1.64,1.5-1.64c0.93,0,1.86,0.61,2.66,2.48l0.72-0.22c-0.05-0.34-0.36-2.2-0.62-2.82c-0.57-0.28-1.55-0.53-2.38-0.5
	c-2.63,0.05-4.11,1.81-4.11,3.85c0,2.04,1.78,3.09,3.2,3.71c1.39,0.61,1.96,1.42,1.96,2.34c0,1.14-0.83,1.81-1.76,1.81
	c-1.42,0-2.76-1.7-3.17-3.37L240.59,19.75z M77.59,27.73v0.74c1.96,0.16,2.17,0.37,2.17,3.22v9.23c0,2.85-0.21,3.06-2.27,3.22v0.74
	h7.28v-0.74c-1.96-0.16-2.17-0.37-2.17-3.22v-3.53h0.83c0.77,0,1.08,0.26,1.5,1c0.75,1.37,1.6,3.06,2.43,4.27
	c1.01,1.48,1.89,2.21,4.7,2.42l1.08,0.05l0.1-0.69c-0.75-0.19-1.16-0.58-1.78-1.21c-0.49-0.53-1.16-1.48-2.14-2.93
	c-0.82-1.19-1.83-3.03-2.25-3.77c2.09-0.79,3.43-2.35,3.43-4.56c0-1.55-0.7-2.66-1.7-3.35c-1.03-0.69-2.37-0.9-4.26-0.9H77.59z
	 M82.59,29.68c0-0.84,0.05-0.95,1.29-0.95c1.65,0,3.51,0.95,3.51,3.69c0,1.27-0.36,2.53-1.39,3.38c-0.67,0.53-1.39,0.69-2.43,0.69
	h-0.98V29.68z M101.36,41.84c-1.01,0.83-1.84,1.17-2.71,1.17c-1.94,0-3.98-1.45-3.93-4.96c2.81-0.11,6.14-0.39,6.51-0.45
	c0.49-0.11,0.54-0.17,0.54-1.2c0-2.01-1.68-3.99-3.85-3.99c-3.41,0-5.81,3.43-5.76,6.91c0.05,3.26,2.04,5.85,5.42,5.85
	c0.72,0,2.66-0.56,4.13-2.87L101.36,41.84z M94.86,36.91c0.21-2.09,1.29-3.4,2.38-3.4c1.14,0,1.94,1.45,1.94,2.56
	c0,0.62-0.1,0.78-0.47,0.78L94.86,36.91z M102.39,40.81c-0.03,1.11,0.2,2.87,0.36,3.26c0.49,0.5,1.78,1.11,3.15,1.11
	c2.12,0,4.52-1.23,4.52-3.98c0-2.04-1.45-3.18-3.38-3.96c-1.11-0.45-2.02-1.2-2.02-2.12c0-0.89,0.6-1.65,1.5-1.65
	c0.93,0,1.86,0.61,2.66,2.48l0.72-0.22c-0.05-0.33-0.36-2.2-0.62-2.81c-0.57-0.28-1.55-0.53-2.38-0.5
	c-2.63,0.06-4.11,1.81-4.11,3.85c0,2.03,1.78,3.09,3.2,3.71c1.39,0.61,1.96,1.42,1.96,2.34c0,1.14-0.83,1.81-1.76,1.81
	c-1.42,0-2.76-1.7-3.17-3.37L102.39,40.81z M120.37,41.84c-1.01,0.83-1.84,1.17-2.71,1.17c-1.94,0-3.98-1.45-3.92-4.96
	c2.81-0.11,6.14-0.39,6.51-0.45c0.49-0.11,0.54-0.17,0.54-1.2c0-2.01-1.68-3.99-3.85-3.99c-3.41,0-5.81,3.43-5.75,6.91
	c0.05,3.26,2.04,5.85,5.42,5.85c0.72,0,2.66-0.56,4.13-2.87L120.37,41.84z M113.86,36.91c0.21-2.09,1.29-3.4,2.37-3.4
	c1.14,0,1.94,1.45,1.94,2.56c0,0.62-0.1,0.78-0.47,0.78L113.86,36.91z M131.77,42.98c-0.33,0.17-0.72,0.33-1.03,0.33
	c-0.36,0-0.72-0.45-0.72-1.56v-5.97c0-0.98-0.1-1.9-1.08-2.7c-0.52-0.42-1.32-0.67-2.22-0.67c-1.91,0.39-3.51,1.42-4.31,2.04
	c-0.54,0.45-0.8,0.89-0.8,1.28c0,0.67,0.75,1.23,1.32,1.23c0.41,0,0.75-0.22,0.83-0.62c0.21-1.06,0.46-1.7,0.87-2.06
	c0.23-0.25,0.59-0.47,1.01-0.47c1.19,0,1.86,0.75,1.86,2.4v0.75c-0.83,0.56-2.89,1.36-4.16,1.92c-1.34,0.61-1.93,1.56-1.93,2.93
	c0,1.62,1.21,3.37,3.15,3.37c0.52,0,1.91-1.06,3-1.76c0.13,0.7,0.64,1.7,1.83,1.76l2.66-1.51L131.77,42.98z M127.48,42.43
	c-0.59,0.56-1.26,0.89-1.73,0.89c-0.67,0-1.55-0.67-1.55-2.12c0-1,0.39-1.59,1.24-2.09c0.47-0.28,1.5-0.84,2.04-1.11V42.43z
	 M136.59,32.36c-1.34,0.45-3.05,0.84-4.31,1.06v0.64c1.6,0.17,1.65,0.22,1.65,1.93v6.22c0,1.53-0.16,1.7-1.68,1.87v0.78h6.37v-0.78
	c-1.88-0.17-2.04-0.33-2.04-1.87v-5.63c0.57-1.23,1.16-1.56,1.6-1.56c0.41,0,0.83,0.22,1.19,0.62c0.15,0.17,0.46,0.22,0.75,0.11
	c0.59-0.25,1.06-1.06,1.06-1.76c0-0.78-0.67-1.62-1.6-1.62c-1.27,0-2.3,1.76-2.92,2.82h-0.08V32.36z M149.97,41.65
	c-1.06,1.03-1.78,1.36-2.86,1.36c-1.21,0-3.74-1.11-3.74-5.07c0-3.18,1.57-4.07,2.56-4.07c0.75,0,1.6,0.22,2.63,1.2
	c0.21,0.19,0.36,0.25,0.49,0.25c0.36,0,0.96-0.61,0.96-1.42c0-0.31-0.08-0.53-0.28-0.72c-0.54-0.47-1.68-0.75-2.35-0.75
	c-0.9,0-2.69,0.33-4.29,1.67c-1.47,1.25-2.38,3.21-2.38,5.27c0,2.98,1.96,5.83,5.45,5.83c1.6,0,3.23-1.28,4.28-3.04L149.97,41.65z
	 M154.3,27.65c-1.34,0.34-3.25,0.78-4.34,0.95v0.72c1.63,0.11,1.68,0.17,1.68,1.76V42.2c0,1.59-0.16,1.7-1.73,1.87v0.78h5.78v-0.78
	c-1.24-0.17-1.39-0.28-1.39-1.87v-6.91c0.59-0.67,1.47-1,2.22-1c1.45,0,2.27,0.95,2.27,2.9v5.02c0,1.59-0.15,1.7-1.47,1.87v0.78
	h5.65v-0.78c-1.37-0.17-1.52-0.28-1.52-1.87v-5.69c0-2.54-1.29-4.1-3.66-4.1c-1.29,0.06-2.58,0.89-3.48,1.81V27.65z M168.65,27.73
	v0.74c2.17,0.16,2.37,0.37,2.37,3.21v9.22c0,2.84-0.21,3.06-2.27,3.21v0.74h7.38v-0.74c-2.01-0.16-2.22-0.37-2.22-3.21v-4.48h7.85
	v4.48c0,2.84-0.21,3.06-2.37,3.21v0.74h7.49v-0.74c-2.01-0.16-2.22-0.37-2.22-3.21v-9.22c0-2.84,0.21-3.06,2.27-3.21v-0.74h-7.33
	v0.74c1.96,0.16,2.17,0.37,2.17,3.21v3.53h-7.85v-3.53c0-2.84,0.21-3.06,2.12-3.21v-0.74H168.65z M198.09,38.58
	c0-3.32-2.27-6.16-5.68-6.16c-2.68,0-5.91,2.17-5.91,6.63c0,3.04,1.99,6.13,5.86,6.13C195.12,45.19,198.09,42.96,198.09,38.58
	 M195.02,39.11c0,3.96-1.29,5.05-2.4,5.05c-1.89,0-3.05-2.45-3.05-5.99c0-3.01,1.21-4.71,2.48-4.71
	C193.98,33.45,195.02,35.65,195.02,39.11 M198.84,40.81c-0.03,1.11,0.21,2.87,0.36,3.26c0.49,0.5,1.78,1.11,3.15,1.11
	c2.12,0,4.51-1.23,4.51-3.98c0-2.04-1.44-3.18-3.38-3.96c-1.11-0.45-2.01-1.2-2.01-2.12c0-0.89,0.59-1.65,1.5-1.65
	c0.93,0,1.86,0.61,2.66,2.48l0.72-0.22c-0.05-0.33-0.36-2.2-0.62-2.81c-0.57-0.28-1.55-0.53-2.38-0.5
	c-2.63,0.06-4.11,1.81-4.11,3.85c0,2.03,1.78,3.09,3.2,3.71c1.39,0.61,1.96,1.42,1.96,2.34c0,1.14-0.83,1.81-1.76,1.81
	c-1.42,0-2.76-1.7-3.17-3.37L198.84,40.81z M211.56,32.14c-1.63,0.5-3.1,1-4.42,1.28v0.64c1.7,0.17,1.75,0.22,1.75,1.73V48.5
	c0,1.48-0.15,1.64-1.75,1.81v0.78h6.63v-0.78c-2.06-0.17-2.22-0.34-2.22-1.81v-3.76c0.39,0.22,1.01,0.45,1.78,0.45
	c3.41-0.78,6.25-3.37,6.25-7.53c0-2.48-1.47-5.24-4.41-5.24c-0.41,0-0.77,0.06-1.03,0.17l-2.58,1.5V32.14z M211.56,35.18
	c0.64-0.5,1.37-0.84,2.09-0.84c1.65,0,3.17,1.23,3.17,4.71c0,3.59-1.7,4.74-2.89,4.74c-0.95,0-1.78-0.45-2.37-0.98V35.18z
	 M223.94,32.37c-1.34,0.45-3.05,0.84-4.31,1.06v0.64c1.6,0.17,1.65,0.22,1.65,1.92v6.22c0,1.53-0.11,1.7-1.76,1.87v0.78h6.19v-0.78
	c-1.62-0.17-1.78-0.33-1.78-1.87V32.37z M224.2,29.57c0-1.06-0.77-1.84-1.68-1.84c-0.88,0-1.65,0.78-1.65,1.84
	c0,0.98,0.77,1.76,1.65,1.76C223.42,31.33,224.2,30.55,224.2,29.57 M243.2,42.98c-0.34,0.17-0.72,0.33-1.03,0.33
	c-0.36,0-0.72-0.45-0.72-1.56v-5.97c0-0.98-0.1-1.9-1.08-2.7c-0.52-0.42-1.32-0.67-2.22-0.67c-1.91,0.39-3.51,1.42-4.31,2.04
	c-0.54,0.45-0.8,0.89-0.8,1.28c0,0.67,0.75,1.23,1.32,1.23c0.41,0,0.75-0.22,0.83-0.62c0.21-1.06,0.46-1.7,0.88-2.06
	c0.23-0.25,0.59-0.47,1.01-0.47c1.19,0,1.86,0.75,1.86,2.4v0.75c-0.83,0.56-2.89,1.36-4.16,1.92c-1.34,0.61-1.94,1.56-1.94,2.93
	c0,1.62,1.21,3.37,3.15,3.37c0.51,0,1.91-1.06,2.99-1.76c0.13,0.7,0.64,1.7,1.83,1.76l2.66-1.51L243.2,42.98z M238.92,42.43
	c-0.59,0.56-1.27,0.89-1.73,0.89c-0.67,0-1.55-0.67-1.55-2.12c0-1,0.39-1.59,1.24-2.09c0.46-0.28,1.5-0.84,2.04-1.11V42.43z
	 M247.72,27.65c-1.37,0.33-3.28,0.78-4.39,0.95v0.72c1.68,0.17,1.73,0.17,1.73,1.81V42.2c0,1.53-0.15,1.7-1.76,1.87v0.78h6.2v-0.78
	c-1.68-0.17-1.78-0.33-1.78-1.87V27.65z M99.24,54.46l-1.4,4.52c-0.24,0.78-0.32,0.82-0.75,0.89v0.24h1.54v-0.24l-0.19-0.03
	c-0.31-0.04-0.36-0.16-0.24-0.62c0.1-0.36,0.22-0.85,0.31-1.11h1.29c0.15,0.45,0.31,0.99,0.38,1.25c0.08,0.33,0.07,0.42-0.19,0.47
	l-0.2,0.03v0.24h1.83v-0.24c-0.4-0.05-0.5-0.11-0.74-0.89c-0.26-0.87-0.57-1.95-0.88-3.01l-0.48-1.61L99.24,54.46z M99.13,55.8h0.02
	l0.54,1.91h-1.1L99.13,55.8z M103.24,54.46v0.24c0.56,0.05,0.61,0.12,0.61,1.06v3.04c0,0.94-0.05,1.01-0.64,1.06v0.24h3.26
	c0.06-0.26,0.21-1.15,0.25-1.43l-0.22-0.05c-0.11,0.42-0.22,0.71-0.34,0.88c-0.14,0.22-0.48,0.25-0.8,0.25
	c-0.22,0-0.45-0.02-0.57-0.12c-0.12-0.11-0.16-0.35-0.16-0.85v-3.02c0-0.94,0.05-1.01,0.61-1.06v-0.24H103.24z M111.11,55.74
	c-0.07-0.49-0.11-0.87-0.14-1.17c-0.08-0.04-0.18-0.06-0.29-0.11c-0.19-0.09-0.45-0.12-0.64-0.12c-0.93,0-1.48,0.75-1.48,1.66
	c0,0.85,0.58,1.31,1.04,1.61l0.22,0.14c0.55,0.34,0.74,0.69,0.74,1.17c0,0.54-0.28,0.98-0.73,0.98c-0.71,0-1.09-0.96-1.23-1.42
	l-0.21,0.09c0.07,0.53,0.15,1.12,0.21,1.35c0.08,0.03,0.21,0.1,0.4,0.18c0.18,0.08,0.43,0.15,0.69,0.15c0.94,0,1.58-0.73,1.58-1.76
	c0-0.9-0.5-1.37-1.04-1.67l-0.18-0.11c-0.54-0.3-0.81-0.63-0.81-1.11c0-0.5,0.25-0.91,0.71-0.91c0.58,0,0.8,0.61,0.92,1.11
	L111.11,55.74z M115.08,54.46l-1.4,4.52c-0.24,0.78-0.32,0.82-0.75,0.89v0.24h1.54v-0.24l-0.19-0.03c-0.31-0.04-0.36-0.16-0.24-0.62
	c0.1-0.36,0.22-0.85,0.31-1.11h1.29c0.15,0.45,0.31,0.99,0.38,1.25c0.08,0.33,0.07,0.42-0.19,0.47l-0.19,0.03v0.24h1.83v-0.24
	c-0.4-0.05-0.5-0.11-0.74-0.89c-0.26-0.87-0.57-1.95-0.88-3.01l-0.48-1.61L115.08,54.46z M114.97,55.8h0.02l0.54,1.91h-1.11
	L114.97,55.8z M123.19,55.93c-0.04-0.5-0.07-0.89-0.13-1.37c-0.19-0.05-0.65-0.23-1.25-0.23c-1.56,0-2.68,1.22-2.68,3.05
	c0,1.37,0.74,2.86,2.56,2.86c0.49,0,1.11-0.19,1.31-0.26c0.11-0.33,0.26-1.03,0.35-1.44l-0.19-0.05c-0.36,0.92-0.71,1.41-1.46,1.41
	c-1.02,0-1.65-1.12-1.65-2.74c0-1.29,0.51-2.48,1.65-2.48c0.65,0,1.08,0.3,1.31,1.29L123.19,55.93z M129.54,57.23
	c0-0.53-0.34-0.97-0.76-0.97s-0.76,0.44-0.76,0.97c0,0.54,0.35,0.97,0.76,0.97S129.54,57.76,129.54,57.23 M134.4,54.46v0.24
	c0.52,0.05,0.57,0.12,0.57,1.06v3.04c0,0.94-0.05,1.01-0.63,1.06v0.24h1.7c1.62,0,2.95-0.94,2.95-3.08c0-0.76-0.26-1.41-0.58-1.81
	c-0.46-0.56-1.17-0.76-1.95-0.76H134.4z M135.75,55.3c0-0.23,0-0.38,0.04-0.43c0.04-0.04,0.22-0.08,0.45-0.08
	c1.11,0,1.86,0.64,1.86,2.5c0,1.44-0.6,2.46-1.75,2.46c-0.53,0-0.61-0.17-0.61-0.96V55.3z M143.71,59.53
	c-0.09,0.05-0.19,0.1-0.28,0.1c-0.1,0-0.19-0.14-0.19-0.49v-1.86c0-0.3-0.03-0.59-0.29-0.84c-0.14-0.13-0.36-0.21-0.6-0.21
	c-0.51,0.12-0.94,0.44-1.16,0.64c-0.15,0.14-0.22,0.28-0.22,0.4c0,0.21,0.2,0.38,0.35,0.38c0.11,0,0.2-0.07,0.22-0.19
	c0.06-0.33,0.13-0.53,0.24-0.64c0.06-0.08,0.16-0.15,0.27-0.15c0.32,0,0.5,0.24,0.5,0.75v0.23c-0.22,0.17-0.78,0.42-1.12,0.6
	c-0.36,0.19-0.52,0.49-0.52,0.91c0,0.5,0.33,1.05,0.85,1.05c0.14,0,0.51-0.33,0.81-0.55c0.04,0.22,0.18,0.53,0.49,0.55l0.72-0.47
	L143.71,59.53z M142.55,59.35c-0.16,0.17-0.34,0.28-0.47,0.28c-0.18,0-0.42-0.21-0.42-0.66c0-0.31,0.11-0.5,0.33-0.65
	c0.13-0.09,0.4-0.26,0.55-0.35V59.35z M146.54,56.22c-0.36,0.14-0.82,0.26-1.16,0.33v0.2c0.43,0.05,0.44,0.07,0.44,0.6v1.95
	c0,0.48-0.04,0.51-0.49,0.56v0.24h1.6v-0.24c-0.35-0.05-0.39-0.09-0.39-0.56v-2.13c0.2-0.21,0.42-0.36,0.63-0.36
	c0.36,0,0.56,0.29,0.56,0.81v1.68c0,0.48-0.03,0.51-0.42,0.56v0.24h1.56v-0.24c-0.39-0.05-0.42-0.09-0.42-0.56v-1.92
	c0-0.66-0.33-1.15-0.9-1.15c-0.21,0-0.39,0.1-0.61,0.28c-0.13,0.1-0.26,0.21-0.4,0.32V56.22z M151.75,56.22
	c-0.36,0.14-0.82,0.26-1.16,0.33v0.2c0.43,0.05,0.44,0.07,0.44,0.6v1.95c0,0.48-0.04,0.51-0.49,0.56v0.24h1.6v-0.24
	c-0.35-0.05-0.39-0.09-0.39-0.56v-2.13c0.19-0.21,0.42-0.36,0.63-0.36c0.36,0,0.56,0.29,0.56,0.81v1.68c0,0.48-0.03,0.51-0.42,0.56
	v0.24h1.56v-0.24c-0.39-0.05-0.42-0.09-0.42-0.56v-1.92c0-0.66-0.33-1.15-0.9-1.15c-0.22,0-0.39,0.1-0.61,0.28
	c-0.13,0.1-0.27,0.21-0.4,0.32V56.22z M155.57,56.34v0.24c0.38,0.05,0.42,0.08,0.58,0.58c0.15,0.49,0.53,1.62,0.85,2.74
	c0.04,0.14,0.05,0.2,0.02,0.3c-0.03,0.1-0.12,0.37-0.17,0.52c-0.12,0.31-0.31,0.56-0.51,0.74c-0.11,0.1-0.17,0.18-0.17,0.31
	c-0.01,0.19,0.19,0.43,0.39,0.43c0.08,0,0.17-0.03,0.22-0.22c0.12-0.46,0.29-1.05,0.74-2.4c0.4-1.21,0.67-1.94,0.86-2.42
	c0.19-0.5,0.21-0.52,0.6-0.59v-0.24h-1.27v0.24l0.25,0.04c0.17,0.03,0.18,0.08,0.1,0.35c-0.08,0.28-0.47,1.58-0.61,1.96l-0.58-1.94
	c-0.07-0.22-0.08-0.34,0.08-0.36l0.21-0.04v-0.24H155.57z M163.55,55.83c0.09-0.42,0.17-0.64,0.25-0.76
	c0.11-0.16,0.29-0.26,0.89-0.26h0.23v4c0,0.94-0.05,1.01-0.66,1.06v0.24h2.14v-0.24c-0.64-0.05-0.7-0.12-0.7-1.06v-4h0.36
	c0.43,0,0.65,0.05,0.77,0.22c0.1,0.13,0.19,0.36,0.26,0.81l0.21-0.02c-0.04-0.56-0.07-1.22-0.08-1.58h-0.11
	c-0.11,0.17-0.15,0.23-0.33,0.23h-2.87c-0.19,0-0.26-0.02-0.36-0.23h-0.12c-0.01,0.45-0.06,1.03-0.08,1.6H163.55z M170.11,53.94
	c-0.36,0.1-0.88,0.24-1.17,0.3v0.23c0.44,0.03,0.45,0.05,0.45,0.55v4.28c0,0.49-0.04,0.53-0.47,0.58v0.24h1.56v-0.24
	c-0.33-0.05-0.37-0.09-0.37-0.58v-2.15c0.16-0.21,0.39-0.31,0.6-0.31c0.39,0,0.61,0.29,0.61,0.9v1.56c0,0.49-0.04,0.53-0.4,0.58
	v0.24h1.52v-0.24c-0.37-0.05-0.41-0.09-0.41-0.58v-1.77c0-0.79-0.35-1.28-0.99-1.28c-0.35,0.02-0.69,0.28-0.94,0.57V53.94z
	 M177.35,58.15c0-1.03-0.61-1.92-1.53-1.92c-0.72,0-1.59,0.68-1.59,2.07c0,0.95,0.54,1.91,1.58,1.91
	C176.55,60.21,177.35,59.52,177.35,58.15 M176.52,58.32c0,1.23-0.35,1.57-0.65,1.57c-0.51,0-0.82-0.76-0.82-1.87
	c0-0.94,0.33-1.47,0.67-1.47C176.24,56.56,176.52,57.24,176.52,58.32 M179.62,59.28c0,0.5-0.03,0.53-0.48,0.58v0.24h1.57v-0.24
	c-0.35-0.05-0.37-0.09-0.37-0.58v-2.1c0.21-0.22,0.44-0.35,0.64-0.35c0.36,0,0.54,0.27,0.54,0.81v1.64c0,0.5-0.03,0.53-0.41,0.58
	v0.24h1.53v-0.24c-0.37-0.05-0.4-0.09-0.4-0.58v-1.91c0-0.05-0.01-0.12-0.01-0.19c0.24-0.24,0.46-0.35,0.65-0.35
	c0.37,0,0.54,0.29,0.54,0.81v1.64c0,0.5-0.03,0.53-0.41,0.58v0.24h1.56v-0.24c-0.39-0.05-0.43-0.09-0.43-0.58v-1.89
	c0-0.67-0.29-1.16-0.9-1.16c-0.23,0-0.39,0.1-0.6,0.26c-0.13,0.11-0.31,0.24-0.47,0.39c-0.13-0.39-0.43-0.65-0.82-0.65
	c-0.2,0-0.38,0.1-0.6,0.28c-0.15,0.12-0.28,0.22-0.4,0.34v-0.63c-0.36,0.14-0.82,0.26-1.16,0.33v0.2c0.43,0.05,0.44,0.07,0.44,0.6
	V59.28z M189.12,59.53c-0.09,0.05-0.19,0.1-0.28,0.1c-0.1,0-0.19-0.14-0.19-0.49v-1.86c0-0.3-0.03-0.59-0.29-0.84
	c-0.14-0.13-0.36-0.21-0.6-0.21c-0.51,0.12-0.95,0.44-1.16,0.64c-0.15,0.14-0.22,0.28-0.22,0.4c0,0.21,0.2,0.38,0.35,0.38
	c0.11,0,0.2-0.07,0.22-0.19c0.05-0.33,0.13-0.53,0.24-0.64c0.06-0.08,0.16-0.15,0.27-0.15c0.32,0,0.5,0.24,0.5,0.75v0.23
	c-0.22,0.17-0.78,0.42-1.12,0.6c-0.36,0.19-0.52,0.49-0.52,0.91c0,0.5,0.33,1.05,0.85,1.05c0.14,0,0.51-0.33,0.8-0.55
	c0.04,0.22,0.17,0.53,0.5,0.55l0.72-0.47L189.12,59.53z M187.96,59.35c-0.16,0.17-0.34,0.28-0.47,0.28c-0.18,0-0.42-0.21-0.42-0.66
	c0-0.31,0.11-0.5,0.33-0.65c0.12-0.09,0.4-0.26,0.55-0.35V59.35z M190.83,58.85c-0.01,0.35,0.06,0.9,0.1,1.02
	c0.13,0.16,0.48,0.35,0.85,0.35c0.57,0,1.22-0.38,1.22-1.24c0-0.64-0.39-0.99-0.91-1.23c-0.3-0.14-0.54-0.37-0.54-0.66
	c0-0.28,0.16-0.51,0.4-0.51c0.25,0,0.5,0.19,0.72,0.77l0.19-0.07c-0.01-0.1-0.1-0.69-0.17-0.88c-0.15-0.09-0.42-0.17-0.64-0.16
	c-0.71,0.02-1.1,0.56-1.1,1.2c0,0.63,0.48,0.96,0.86,1.16c0.37,0.19,0.53,0.44,0.53,0.73c0,0.36-0.22,0.56-0.47,0.56
	c-0.38,0-0.74-0.53-0.85-1.05L190.83,58.85z M194.93,61.27c0.49-0.21,1.03-0.7,1.03-1.42c0-0.61-0.39-1.06-0.72-1.06
	c-0.19,0-0.4,0.19-0.4,0.41c0,0.17,0.06,0.26,0.1,0.26c0.26,0.1,0.43,0.35,0.43,0.64c0,0.4-0.19,0.71-0.53,0.94L194.93,61.27z
	 M200.82,54.46v0.24c0.51,0.05,0.57,0.12,0.57,1.06v3.04c0,0.94-0.05,1.01-0.57,1.06v0.24h2.04v-0.24c-0.64-0.05-0.7-0.12-0.7-1.06
	v-1.35h0.7c0.6,0,0.61,0.03,0.68,0.69h0.22v-1.78h-0.22c-0.07,0.64-0.08,0.69-0.68,0.69h-0.7v-1.93c0-0.31,0.02-0.31,0.28-0.31h0.36
	c0.43,0,0.65,0.05,0.77,0.2c0.1,0.13,0.19,0.37,0.26,0.77l0.21-0.04c-0.04-0.5-0.07-1.15-0.08-1.28H200.82z M209.03,58.15
	c0-1.03-0.61-1.92-1.53-1.92c-0.72,0-1.59,0.68-1.59,2.07c0,0.95,0.53,1.91,1.58,1.91C208.23,60.21,209.03,59.52,209.03,58.15
	 M208.2,58.32c0,1.23-0.35,1.57-0.65,1.57c-0.51,0-0.82-0.76-0.82-1.87c0-0.94,0.33-1.47,0.67-1.47
	C207.93,56.56,208.2,57.24,208.2,58.32 M212,56.28c-0.31,0.04-0.84,0.14-1.13,0.16v0.21l0.19,0.05c0.15,0.03,0.22,0.08,0.22,0.4
	v1.95c0,0.76,0.35,1.17,0.9,1.17c0.19,0,0.36-0.09,0.58-0.25c0.15-0.12,0.29-0.25,0.43-0.38v0.56l0.05,0.07
	c0.33-0.1,0.79-0.26,1.16-0.31v-0.24h-0.26c-0.19,0-0.23-0.06-0.23-0.43v-2.95c-0.3,0.04-0.86,0.14-1.19,0.16v0.21l0.19,0.04
	c0.24,0.05,0.28,0.08,0.28,0.41v2.15c-0.22,0.24-0.45,0.36-0.66,0.36c-0.26,0-0.54-0.19-0.54-0.83V56.28z M217.21,56.22
	c-0.36,0.14-0.82,0.26-1.16,0.33v0.2c0.43,0.05,0.45,0.07,0.45,0.6v1.95c0,0.48-0.04,0.51-0.49,0.56v0.24h1.6v-0.24
	c-0.35-0.05-0.39-0.09-0.39-0.56v-2.13c0.19-0.21,0.42-0.36,0.63-0.36c0.36,0,0.56,0.29,0.56,0.81v1.68c0,0.48-0.03,0.51-0.42,0.56
	v0.24h1.56v-0.24c-0.39-0.05-0.42-0.09-0.42-0.56v-1.92c0-0.66-0.33-1.15-0.89-1.15c-0.22,0-0.39,0.1-0.61,0.28
	c-0.13,0.1-0.27,0.21-0.4,0.32V56.22z M224.22,53.94c-0.36,0.1-0.85,0.22-1.21,0.3v0.23c0.48,0.03,0.49,0.05,0.49,0.55v1.27
	c-0.16-0.03-0.27-0.04-0.34-0.04c-1.08,0-1.85,0.95-1.85,2.1c0,1.28,0.79,1.88,1.4,1.88c0.07,0,0.17-0.03,0.3-0.13l0.5-0.36v0.5
	c0.48-0.21,1.08-0.31,1.21-0.35v-0.24h-0.26c-0.2,0-0.24-0.04-0.24-0.43V53.94z M223.51,59.42c-0.16,0.14-0.33,0.22-0.52,0.22
	c-0.36,0-0.85-0.46-0.85-1.51c0-1.36,0.58-1.53,0.78-1.53c0.25,0,0.47,0.11,0.6,0.39V59.42z M228.89,59.17
	c-0.27,0.26-0.49,0.36-0.73,0.36c-0.52,0-1.07-0.45-1.06-1.55c0.75-0.04,1.65-0.12,1.75-0.14c0.13-0.03,0.15-0.05,0.15-0.37
	c0-0.63-0.45-1.24-1.03-1.24c-0.92,0-1.56,1.07-1.55,2.15c0.01,1.02,0.55,1.82,1.46,1.82c0.2,0,0.72-0.17,1.11-0.89L228.89,59.17z
	 M227.14,57.63c0.05-0.65,0.35-1.06,0.64-1.06c0.31,0,0.52,0.45,0.52,0.8c0,0.19-0.03,0.24-0.13,0.24L227.14,57.63z M231.88,56.22
	c-0.36,0.14-0.82,0.26-1.16,0.33v0.2c0.43,0.05,0.45,0.07,0.45,0.6v1.94c0,0.48-0.04,0.53-0.45,0.58v0.24h1.72v-0.24
	c-0.51-0.05-0.55-0.1-0.55-0.58v-1.76c0.15-0.38,0.31-0.48,0.43-0.48c0.11,0,0.22,0.07,0.32,0.19c0.04,0.05,0.12,0.07,0.2,0.04
	c0.16-0.08,0.29-0.33,0.29-0.55c0-0.24-0.18-0.5-0.43-0.5c-0.34,0-0.62,0.55-0.79,0.88h-0.02V56.22z"/>
<path fill="#931638" d="M68.24,64.89c1.51-2.12,3.15-4.27,3.82-4.74c0.06-0.03,0.1-0.05,0.17-0.08c2.55-0.15,3.99-1.05,4.36-1.33
	c0.48-0.35,1.89-1.74,2.13-1.99c0.24-0.26,0.97-1.94,1.28-2.64v0l-0.04,0.06l0.12-0.28l0.02-0.07l0.2-0.61
	c-0.01-0.18-0.11-0.35-0.27-0.44c-0.12-0.06-0.26-0.06-0.4-0.04c0.01-0.02,0.01-0.04,0.01-0.04c0.09-0.19,0.19-0.45,0.19-0.63
	c0-0.01,0-0.03,0-0.04c-0.03-0.2-0.13-0.35-0.3-0.45c-0.17-0.1-0.39-0.09-0.63-0.04c-0.12-0.15-0.24-0.25-0.27-0.26
	c-0.05-0.04-0.33-0.14-0.85,0.18c-0.2,0.12-0.4,0.34-0.56,0.54c0.02-0.16,0.04-0.32,0.04-0.32c-0.05-0.18-0.17-0.32-0.35-0.38
	c-0.25-0.09-0.56-0.03-0.85,0.17c-0.33,0.22-0.77,0.92-0.89,1.13c-0.11,0.09-0.54,0.47-0.8,0.92c-0.84,0.27-1.35,0.26-1.57,0.17
	c0.51-0.29,0.91-0.58,1.13-0.84c0.5-0.6,0.77-1.23,0.77-1.75c0-0.09-0.01-0.17-0.02-0.25c-0.05-0.24-0.18-0.42-0.36-0.52
	c-0.5-0.26-1.1,0.26-1.21,0.36c-0.01,0.01-0.18,0.19-0.27,0.29c-0.19,0.04-0.58,0.16-0.85,0.4c-0.18,0.16-0.4,0.24-0.66,0.33
	c-0.31,0.11-0.65,0.23-0.99,0.52l-0.01,0c-0.08,0.05-0.6,0.41-0.77,0.53c-0.79,0.42-1.21,0.84-1.66,1.28c-0.89,0.89-2,2-6.97,3.67
	c-0.04-1.85-1.17-6.8-1.39-8.7c-0.46-3.35-4.29-7.96-7.05-10.87c2.6,1.53,4.06,1.74,5.49-0.23c0.38-0.59,0.97,0.05,1.51-0.06
	c0.79-0.41,0.68-0.64,0.68-1.22c0.23-0.62,0.85-0.31,1.31-0.38c1.16-0.19,0.47-1.43,0.93-2.05c5.09-0.31-0.66-5.05,2.78-7.01
	c2.23-1.05,3.07-2.46,4.07-3.82c0.82-1.12,0.99-0.24,1.6-1.17c1.11-4.04-0.81-9.02-3.27-12.45C54.93-6.7,40.5,0.88,36.3,11.08
	c-1.74,2.59-1.2,6.36-1.3,9.45c-0.33,1.07-0.97,1.05-1.89,0.41c-0.21,2.14,1.44,2.56,2.17,2.7c0.08,0.28,0.56,0.69,0.76,0.97
	c-0.66,0.2-2.04-0.19-2.48-0.44c-0.02,0.48,0.04,0.88,0.43,1.33c0.3,1.52,1.06,2.06,2.15,2.51c2.03,0.83,1.08,3.65,0.84,4.81
	c-0.08,0.25-0.15,0.51-0.22,0.75c-1.88,0.49-3.12,2.2-3.62,3.99c-0.23,4.32-2.43,7.9-2.39,12.38c0,0-0.04,0.66,0,0.92
	c0.99,4.39-0.06,10.02-0.1,14.75C19.58,67.78,9.37,71.63,0.5,76.81c14.95-6.09,32.38-9.6,51.02-9.6c18.64,0,36.07,3.51,51.02,9.6
	C92.58,71,80.92,66.85,68.24,64.89 M39.9,55.76c1.19-3.03,4.26-5.03,9.1-5.94l0.14-0.02c0.99-0.14,3.3-0.46,4.08,1.11
	c0,0,0.17,0.3,0.08,0.56c-0.09,0.26-0.35,0.28-0.35,0.28c-4.49,0.15-8.33,1.98-11.42,5.44c0,0-0.35,0.34-1.22-0.35
	C39.66,56.32,39.9,55.76,39.9,55.76 M116.89,67.53c-0.02,0.22-0.08,0.97-0.15,1.52l-0.26,0.03c-0.01-0.47-0.05-0.73-0.15-0.89
	c-0.11-0.19-0.35-0.24-0.91-0.25h-0.45c-0.32,0-0.34,0-0.4,0.37l-0.37,2.22h0.84c0.73,0,0.77-0.05,0.98-0.8h0.26l-0.33,2.07h-0.27
	c0.04-0.75,0.03-0.8-0.71-0.8h-0.84l-0.26,1.58c-0.18,1.08-0.12,1.15,0.68,1.21l-0.04,0.28h-2.47l0.04-0.28
	c0.64-0.06,0.72-0.13,0.9-1.21l0.57-3.53c0.18-1.08,0.12-1.15-0.54-1.21l0.05-0.28H116.89z M117.19,70.85
	c0.21-0.21,0.57-0.46,0.66-0.46c0.06,0,0.05,0.08-0.02,0.45l-0.53,2.57c-0.12,0.59,0.03,0.76,0.23,0.76c0.24,0,1.05-0.57,1.46-1.03
	l-0.12-0.24c-0.26,0.23-0.58,0.46-0.65,0.46c-0.06,0-0.06-0.09-0.01-0.32l0.56-2.66c0.09-0.46,0.12-0.81-0.18-0.81
	c-0.32,0-1,0.47-1.51,1.02L117.19,70.85z M119.12,67.71c0-0.25-0.15-0.5-0.45-0.5c-0.39,0-0.58,0.39-0.58,0.67
	c0.01,0.31,0.17,0.5,0.45,0.5C118.88,68.38,119.12,68.06,119.12,67.71 M119.82,70.85c0.2-0.23,0.53-0.47,0.61-0.47
	c0.07,0,0.04,0.14-0.03,0.5l-0.31,1.65c-0.1,0.55-0.2,1.09-0.33,1.65l0.92-0.27h0.01c0.05-0.56,0.26-1.67,0.32-1.9
	c0.33-0.69,1.2-1.69,1.49-1.69c0.2,0,0.17,0.24,0.08,0.67l-0.49,2.35c-0.13,0.6-0.03,0.83,0.23,0.83c0.18,0,0.92-0.43,1.39-0.95
	l-0.11-0.25c-0.23,0.21-0.54,0.42-0.61,0.42c-0.06,0-0.04-0.09,0.01-0.36c0.16-0.82,0.33-1.67,0.44-2.19
	c0.23-1.14-0.1-1.26-0.29-1.26c-0.13,0-0.28,0.05-0.51,0.18c-0.31,0.17-0.9,0.64-1.48,1.46h-0.02l0.14-0.73
	c0.11-0.56,0.1-0.91-0.18-0.91c-0.28,0-0.91,0.47-1.41,1.02L119.82,70.85z M128.2,72.96c-0.23,0.2-0.53,0.42-0.61,0.42
	c-0.05,0-0.04-0.1,0-0.36l0.95-5.63c0.05-0.3,0.04-0.47-0.05-0.47c-0.07,0-0.85,0.25-1.53,0.42v0.24h0.4c0.3,0,0.31,0.05,0.24,0.45
	l-0.27,1.56c-0.13-0.03-0.26-0.03-0.36-0.03c-0.54,0.04-1.23,0.4-1.6,0.79c-0.5,0.53-0.99,1.6-0.99,2.72c0,0.79,0.31,1.08,0.61,1.08
	c0.2,0,0.66-0.33,0.79-0.46c0.42-0.37,0.79-0.83,1.07-1.31h0.03l-0.17,0.95c-0.13,0.7,0.05,0.81,0.21,0.81
	c0.19,0,0.93-0.43,1.39-0.97L128.2,72.96z M125.52,73.41c-0.14,0-0.21-0.18-0.21-0.56c0-0.47,0.14-1.22,0.35-1.75
	c0.23-0.57,0.46-0.82,0.63-0.94c0.14-0.1,0.3-0.14,0.46-0.14c0.2,0,0.37,0.05,0.52,0.12c-0.06,0.48-0.27,1.47-0.43,1.77
	c-0.21,0.38-0.39,0.66-0.59,0.89C125.91,73.21,125.66,73.41,125.52,73.41 M129.13,70.85c0.2-0.21,0.57-0.46,0.66-0.46
	c0.06,0,0.05,0.08-0.02,0.45l-0.53,2.57c-0.12,0.59,0.03,0.76,0.23,0.76c0.25,0,1.05-0.57,1.46-1.03l-0.12-0.24
	c-0.25,0.23-0.58,0.46-0.65,0.46c-0.06,0-0.06-0.09-0.01-0.32l0.56-2.66c0.1-0.46,0.12-0.81-0.18-0.81c-0.32,0-1,0.47-1.51,1.02
	L129.13,70.85z M131.06,67.71c0-0.25-0.15-0.5-0.45-0.5c-0.39,0-0.58,0.39-0.58,0.67c0.01,0.31,0.17,0.5,0.45,0.5
	C130.82,68.38,131.06,68.06,131.06,67.71 M131.76,70.85c0.2-0.23,0.53-0.47,0.61-0.47c0.07,0,0.04,0.14-0.02,0.5l-0.31,1.65
	c-0.1,0.55-0.21,1.09-0.33,1.65l0.92-0.27h0.01c0.05-0.56,0.26-1.67,0.31-1.9c0.33-0.69,1.2-1.69,1.49-1.69
	c0.21,0,0.17,0.24,0.09,0.67l-0.49,2.35c-0.13,0.6-0.03,0.83,0.23,0.83c0.18,0,0.92-0.43,1.39-0.95l-0.11-0.25
	c-0.23,0.21-0.54,0.42-0.61,0.42c-0.06,0-0.04-0.09,0.01-0.36c0.16-0.82,0.33-1.67,0.45-2.19c0.23-1.14-0.1-1.26-0.29-1.26
	c-0.13,0-0.28,0.05-0.51,0.18c-0.31,0.17-0.9,0.64-1.48,1.46h-0.03l0.14-0.73c0.11-0.56,0.11-0.91-0.18-0.91
	c-0.28,0-0.91,0.47-1.41,1.02L131.76,70.85z M140.22,69.61c-0.18,0.08-0.45,0.14-1.12,0.21c-0.18-0.15-0.42-0.25-0.71-0.25
	c-0.41,0-0.88,0.19-1.27,0.56c-0.42,0.4-0.64,0.98-0.64,1.52c0,0.68,0.36,1.1,0.89,1.22c-0.4,0.28-0.56,0.41-0.56,0.6
	c0,0.15,0.14,0.37,0.38,0.53c-0.91,0.43-1.41,0.91-1.41,1.41c0,0.72,0.78,1.05,1.52,1.05c0.61,0,2.06-0.4,2.06-1.46
	c0-0.43-0.31-0.89-1.06-1.34c-0.37-0.23-0.7-0.44-0.7-0.61c0-0.07,0.05-0.13,0.12-0.18c0.56-0.21,0.95-0.42,1.17-0.64
	c0.28-0.28,0.6-0.76,0.6-1.47c0-0.16-0.02-0.32-0.08-0.47c0.06,0,0.08,0,0.11-0.01c0.21-0.03,0.46-0.19,0.75-0.53L140.22,69.61z
	 M138.68,75.36c0,0.47-0.53,0.68-1.01,0.68c-0.44,0-1.01-0.2-1.01-0.8c0-0.41,0.27-0.81,0.79-1.03c0.12,0.05,0.37,0.19,0.63,0.39
	C138.48,74.86,138.68,75.12,138.68,75.36 M137.6,70.42c0.16-0.3,0.37-0.44,0.53-0.44c0.38,0,0.53,0.37,0.53,0.88
	c0,0.99-0.45,1.62-0.82,1.62c-0.24,0-0.48-0.29-0.48-0.89C137.36,71.09,137.47,70.69,137.6,70.42 M144.83,72.88
	c-0.22,0.2-0.64,0.61-1.13,0.61c-0.37,0-0.56-0.37-0.55-1c0-0.63,0.16-1.4,0.4-1.88c0.18-0.38,0.38-0.54,0.56-0.54
	c0.18,0,0.38,0.11,0.59,0.45c0.07,0.11,0.23,0.15,0.37,0.01c0.15-0.14,0.24-0.29,0.24-0.44c0-0.28-0.34-0.52-0.71-0.52
	c-0.54,0-1.11,0.35-1.46,0.72c-0.61,0.62-0.9,1.63-0.91,2.44c0,0.91,0.36,1.43,1,1.43c0.41,0,1.18-0.36,1.74-1.05L144.83,72.88z
	 M145.81,70.85c0.21-0.23,0.54-0.46,0.61-0.46c0.08,0,0.05,0.13-0.02,0.49l-0.38,2.02c-0.21,1.14,0.14,1.27,0.32,1.27
	c0.21,0,0.44-0.11,0.64-0.26c0.38-0.27,0.92-0.85,1.35-1.61h0.02l-0.19,1c-0.1,0.55-0.03,0.86,0.23,0.86c0.15,0,0.9-0.43,1.36-0.95
	l-0.12-0.25c-0.22,0.21-0.53,0.42-0.6,0.42c-0.06,0-0.04-0.09,0-0.35c0.2-1.16,0.41-2.31,0.63-3.46h-0.11l-0.79,0.27
	c-0.08,0.55-0.24,1.38-0.29,1.6c-0.15,0.36-0.46,0.85-0.76,1.25c-0.3,0.41-0.59,0.72-0.74,0.72c-0.18,0-0.16-0.28-0.08-0.77
	l0.44-2.32c0.1-0.5,0.01-0.75-0.19-0.75c-0.32,0-0.96,0.47-1.46,1.02L145.81,70.85z M150.58,70.85c0.2-0.21,0.53-0.47,0.6-0.47
	c0.06,0,0.05,0.14-0.02,0.55l-0.28,1.61c-0.1,0.55-0.2,1.08-0.3,1.63l0.91-0.29h0.01c0.02-0.34,0.13-1.03,0.3-1.99
	c0.11-0.41,0.25-0.74,0.46-1.05c0.19-0.3,0.32-0.33,0.4-0.33c0.07,0,0.19,0.04,0.27,0.12c0.08,0.09,0.17,0.08,0.25,0.01
	c0.09-0.07,0.16-0.15,0.26-0.33c0.07-0.13,0.1-0.33,0.03-0.46c-0.08-0.17-0.27-0.27-0.46-0.27c-0.25,0-0.73,0.6-1.14,1.47h-0.03
	l0.15-0.76c0.07-0.35,0.06-0.7-0.16-0.7c-0.29,0-0.88,0.47-1.37,1.02L150.58,70.85z M156.55,72.77c-0.49,0.52-0.93,0.72-1.26,0.72
	c-0.5,0-0.62-0.59-0.62-1.06c0-0.05,0.01-0.14,0.02-0.2c0.81-0.3,2.27-0.93,2.27-1.85c0-0.45-0.3-0.81-0.83-0.81
	c-0.48,0-0.99,0.31-1.36,0.63c-0.62,0.53-1.01,1.58-1.01,2.51c0,1.17,0.58,1.46,0.98,1.46c0.37,0,1.11-0.15,1.95-1.16L156.55,72.77z
	 M155.47,70.12c0.08-0.06,0.19-0.11,0.28-0.11c0.13,0,0.36,0.1,0.36,0.47c0,0.56-0.37,0.99-1.39,1.4
	C154.86,70.75,155.23,70.29,155.47,70.12 M159.94,70.09c0-0.28-0.33-0.52-0.71-0.52c-0.36,0-0.74,0.22-1.04,0.52
	c-0.41,0.42-0.46,0.82-0.46,1.09c0,0.57,0.47,0.8,0.84,1.09c0.42,0.33,0.49,0.55,0.49,0.78c0,0.31-0.25,0.52-0.46,0.52
	c-0.24,0-0.55-0.15-0.83-0.5c-0.09-0.11-0.19-0.14-0.32-0.04c-0.13,0.09-0.25,0.29-0.25,0.49c0.01,0.36,0.55,0.63,0.88,0.63
	c0.82,0,1.63-0.86,1.64-1.71c0-0.43-0.25-0.75-0.76-1.09c-0.27-0.18-0.6-0.43-0.6-0.73c0-0.31,0.21-0.51,0.44-0.51
	c0.27,0,0.51,0.21,0.66,0.41c0.06,0.08,0.16,0.09,0.31-0.04C159.87,70.4,159.94,70.25,159.94,70.09 M160.38,73.52
	c0,0.37,0.21,0.64,0.51,0.64c0.31,0,0.6-0.27,0.6-0.74c0-0.38-0.21-0.65-0.51-0.65C160.63,72.77,160.38,73.08,160.38,73.52
	 M164.7,72.11c0.02,0.69,0.03,1.23,0.03,1.46c0.15,0.29,0.78,0.63,1.48,0.63c1.07,0,2.02-0.82,2.02-2.13c0-0.82-0.45-1.35-1-1.77
	l-0.29-0.22c-0.42-0.32-0.74-0.65-0.74-1.18c0-0.61,0.31-1.12,0.94-1.12c0.81,0,0.98,0.82,1.04,1.37l0.26-0.03
	c0.01-0.56,0.01-0.96,0.03-1.39c-0.08-0.04-0.19-0.09-0.34-0.16c-0.31-0.14-0.59-0.18-0.86-0.18c-1.02,0-1.9,0.75-1.9,1.97
	c0,0.8,0.52,1.31,1.01,1.69l0.21,0.15c0.46,0.34,0.75,0.74,0.75,1.36c0,0.63-0.32,1.25-1.05,1.25c-0.85,0-1.25-1.14-1.33-1.71
	L164.7,72.11z M171.45,72.37l-0.18,1.03c-0.11,0.65,0.1,0.76,0.22,0.76c0.16,0,0.91-0.43,1.39-0.95l-0.1-0.25
	c-0.23,0.21-0.54,0.42-0.62,0.42c-0.07,0-0.06-0.09-0.02-0.35c0.18-1.14,0.39-2.28,0.58-3.32c-0.19-0.01-0.32-0.02-0.49-0.06
	c-0.21-0.05-0.36-0.08-0.49-0.08c-0.65,0-1.4,0.42-1.77,0.85c-0.48,0.54-0.94,1.66-0.94,2.64c0,0.87,0.31,1.1,0.53,1.1
	c0.18,0,0.67-0.35,0.85-0.53c0.32-0.31,0.72-0.79,1.02-1.27H171.45z M170.97,70.14c0.13-0.08,0.26-0.1,0.37-0.1
	c0.2,0,0.35,0.03,0.48,0.1c-0.03,0.35-0.24,1.38-0.32,1.6c-0.18,0.35-0.47,0.77-0.72,1.09c-0.29,0.36-0.55,0.56-0.62,0.56
	c-0.11,0-0.19-0.17-0.19-0.51c0-0.45,0.1-1.12,0.32-1.7C170.51,70.52,170.75,70.27,170.97,70.14 M173.46,70.89
	c0.32-0.32,0.5-0.47,0.59-0.47c0.1,0,0.12,0.25,0.16,0.66c0.05,0.38,0.13,2.27,0.14,3.09h0.34c0.54-0.74,1.26-1.95,1.79-2.75
	c0.48-0.73,0.62-0.99,0.62-1.29c0-0.34-0.18-0.55-0.42-0.55c-0.25,0-0.48,0.26-0.47,0.5c0,0.07,0.1,0.23,0.1,0.47
	c0,0.37-0.21,0.8-0.51,1.31c-0.22,0.38-0.41,0.69-0.69,1.12h-0.02c0-0.73-0.04-1.77-0.07-2.37c-0.04-0.68-0.1-1.04-0.35-1.04
	c-0.33,0-0.93,0.61-1.3,1.09L173.46,70.89z M177.63,70.85c0.2-0.21,0.57-0.46,0.66-0.46c0.06,0,0.05,0.08-0.02,0.45l-0.53,2.57
	c-0.12,0.59,0.03,0.76,0.23,0.76c0.25,0,1.05-0.57,1.46-1.03l-0.12-0.24c-0.25,0.23-0.58,0.46-0.65,0.46
	c-0.06,0-0.06-0.09-0.01-0.32l0.56-2.66c0.1-0.46,0.12-0.81-0.18-0.81c-0.32,0-1,0.47-1.51,1.02L177.63,70.85z M179.55,67.71
	c0-0.25-0.16-0.5-0.45-0.5c-0.39,0-0.58,0.39-0.58,0.67c0.01,0.31,0.17,0.5,0.45,0.5C179.31,68.38,179.55,68.06,179.55,67.71
	 M180.26,70.85c0.2-0.23,0.53-0.47,0.61-0.47c0.07,0,0.04,0.14-0.03,0.5l-0.31,1.65c-0.1,0.55-0.21,1.09-0.33,1.65l0.92-0.27h0.01
	c0.05-0.56,0.26-1.67,0.32-1.9c0.33-0.69,1.2-1.69,1.49-1.69c0.2,0,0.17,0.24,0.09,0.67l-0.49,2.35c-0.13,0.6-0.02,0.83,0.23,0.83
	c0.18,0,0.92-0.43,1.39-0.95l-0.11-0.25c-0.23,0.21-0.54,0.42-0.61,0.42c-0.06,0-0.04-0.09,0.01-0.36c0.16-0.82,0.33-1.67,0.44-2.19
	c0.23-1.14-0.1-1.26-0.29-1.26c-0.13,0-0.28,0.05-0.51,0.18c-0.31,0.17-0.9,0.64-1.47,1.46h-0.03l0.15-0.73
	c0.11-0.56,0.1-0.91-0.18-0.91c-0.28,0-0.91,0.47-1.41,1.02L180.26,70.85z M188.71,69.61c-0.18,0.08-0.45,0.14-1.11,0.21
	c-0.18-0.15-0.42-0.25-0.71-0.25c-0.41,0-0.88,0.19-1.27,0.56c-0.42,0.4-0.64,0.98-0.64,1.52c0,0.68,0.36,1.1,0.89,1.22
	c-0.4,0.28-0.56,0.41-0.56,0.6c0,0.15,0.14,0.37,0.38,0.53c-0.91,0.43-1.42,0.91-1.42,1.41c0,0.72,0.79,1.05,1.52,1.05
	c0.61,0,2.06-0.4,2.06-1.46c0-0.43-0.31-0.89-1.06-1.34c-0.37-0.23-0.7-0.44-0.7-0.61c0-0.07,0.05-0.13,0.12-0.18
	c0.56-0.21,0.96-0.42,1.18-0.64c0.28-0.28,0.6-0.76,0.6-1.47c0-0.16-0.02-0.32-0.08-0.47c0.06,0,0.08,0,0.11-0.01
	c0.21-0.03,0.46-0.19,0.75-0.53L188.71,69.61z M187.17,75.36c0,0.47-0.53,0.68-1.01,0.68c-0.45,0-1.01-0.2-1.01-0.8
	c0-0.41,0.27-0.81,0.79-1.03c0.12,0.05,0.37,0.19,0.63,0.39C186.98,74.86,187.17,75.12,187.17,75.36 M186.1,70.42
	c0.15-0.3,0.37-0.44,0.53-0.44c0.38,0,0.53,0.37,0.53,0.88c0,0.99-0.45,1.62-0.82,1.62c-0.24,0-0.48-0.29-0.48-0.89
	C185.86,71.09,185.96,70.69,186.1,70.42 M193.32,72.88c-0.22,0.2-0.64,0.61-1.13,0.61c-0.37,0-0.56-0.37-0.55-1
	c0-0.63,0.16-1.4,0.4-1.88c0.18-0.38,0.38-0.54,0.56-0.54c0.18,0,0.37,0.11,0.59,0.45c0.06,0.11,0.23,0.15,0.37,0.01
	c0.14-0.14,0.24-0.29,0.24-0.44c0-0.28-0.34-0.52-0.71-0.52c-0.54,0-1.11,0.35-1.47,0.72c-0.6,0.62-0.9,1.63-0.91,2.44
	c0,0.91,0.36,1.43,1.01,1.43c0.41,0,1.18-0.36,1.74-1.05L193.32,72.88z M195.03,73.9c0.05-0.56,0.27-1.67,0.32-1.95
	c0.34-0.69,1.15-1.64,1.46-1.64c0.2,0,0.18,0.24,0.1,0.67l-0.46,2.35c-0.12,0.6-0.01,0.83,0.22,0.83c0.19,0,0.94-0.43,1.4-0.95
	l-0.11-0.25c-0.22,0.21-0.53,0.42-0.6,0.42c-0.08,0-0.06-0.09-0.01-0.35c0.16-0.83,0.32-1.68,0.45-2.42
	c0.17-0.92-0.14-1.04-0.33-1.04c-0.13,0-0.3,0.05-0.47,0.15c-0.36,0.2-0.94,0.67-1.52,1.46h-0.02l0.68-3.78
	c0.05-0.3,0.03-0.47-0.07-0.47c-0.07,0-0.85,0.25-1.55,0.42v0.24h0.41c0.29,0,0.3,0.05,0.23,0.45l-0.77,4.62
	c-0.09,0.51-0.18,1-0.27,1.52L195.03,73.9z M198.91,70.85c0.2-0.21,0.57-0.46,0.66-0.46c0.06,0,0.05,0.08-0.02,0.45l-0.53,2.57
	c-0.12,0.59,0.04,0.76,0.23,0.76c0.25,0,1.05-0.57,1.46-1.03l-0.12-0.24c-0.26,0.23-0.58,0.46-0.65,0.46
	c-0.06,0-0.06-0.09-0.01-0.32l0.56-2.66c0.09-0.46,0.12-0.81-0.18-0.81c-0.33,0-1,0.47-1.51,1.02L198.91,70.85z M200.84,67.71
	c0-0.25-0.16-0.5-0.45-0.5c-0.39,0-0.58,0.39-0.58,0.67c0.01,0.31,0.17,0.5,0.45,0.5C200.6,68.38,200.84,68.06,200.84,67.71
	 M203.01,72.89c-0.21,0.22-0.57,0.49-0.65,0.49c-0.06,0-0.07-0.09-0.03-0.31l0.99-5.68c0.05-0.3,0.03-0.47-0.07-0.47
	c-0.07,0-0.81,0.24-1.53,0.42v0.24h0.41c0.29,0,0.3,0.05,0.23,0.45l-0.91,5.2c-0.13,0.71,0.01,0.93,0.24,0.93
	c0.19,0,0.97-0.49,1.42-1.03L203.01,72.89z M207.53,72.96c-0.23,0.2-0.53,0.42-0.61,0.42c-0.05,0-0.04-0.1,0-0.36l0.96-5.63
	c0.05-0.3,0.04-0.47-0.05-0.47c-0.07,0-0.85,0.25-1.53,0.42v0.24h0.4c0.3,0,0.31,0.05,0.24,0.45l-0.27,1.56
	c-0.13-0.03-0.26-0.03-0.36-0.03c-0.54,0.04-1.23,0.4-1.6,0.79c-0.5,0.53-0.99,1.6-0.99,2.72c0,0.79,0.32,1.08,0.61,1.08
	c0.2,0,0.66-0.33,0.79-0.46c0.42-0.37,0.79-0.83,1.07-1.31h0.03l-0.17,0.95c-0.13,0.7,0.05,0.81,0.21,0.81
	c0.19,0,0.93-0.43,1.39-0.97L207.53,72.96z M204.84,73.41c-0.14,0-0.21-0.18-0.21-0.56c0-0.47,0.14-1.22,0.35-1.75
	c0.23-0.57,0.46-0.82,0.63-0.94c0.15-0.1,0.3-0.14,0.46-0.14c0.21,0,0.38,0.05,0.52,0.12c-0.06,0.48-0.27,1.47-0.43,1.77
	c-0.21,0.38-0.39,0.66-0.59,0.89C205.23,73.21,204.99,73.41,204.84,73.41 M208.44,70.85c0.2-0.21,0.53-0.47,0.6-0.47
	c0.06,0,0.05,0.14-0.02,0.55l-0.28,1.61c-0.1,0.55-0.2,1.08-0.3,1.63l0.91-0.29h0.01c0.02-0.34,0.13-1.03,0.3-1.99
	c0.11-0.41,0.26-0.74,0.46-1.05c0.19-0.3,0.32-0.33,0.4-0.33c0.08,0,0.19,0.04,0.27,0.12c0.09,0.09,0.17,0.08,0.26,0.01
	c0.08-0.07,0.16-0.15,0.26-0.33c0.07-0.13,0.09-0.33,0.03-0.46c-0.09-0.17-0.27-0.27-0.46-0.27c-0.25,0-0.73,0.6-1.14,1.47h-0.03
	l0.15-0.76c0.07-0.35,0.06-0.7-0.16-0.7c-0.29,0-0.88,0.47-1.38,1.02L208.44,70.85z M214.42,72.77c-0.49,0.52-0.93,0.72-1.26,0.72
	c-0.5,0-0.62-0.59-0.62-1.06c0-0.05,0.01-0.14,0.01-0.2c0.82-0.3,2.27-0.93,2.27-1.85c0-0.45-0.3-0.81-0.83-0.81
	c-0.48,0-0.99,0.31-1.36,0.63c-0.62,0.53-1.01,1.58-1.01,2.51c0,1.17,0.58,1.46,0.98,1.46c0.37,0,1.11-0.15,1.95-1.16L214.42,72.77z
	 M213.34,70.12c0.08-0.06,0.19-0.11,0.28-0.11c0.13,0,0.36,0.1,0.36,0.47c0,0.56-0.36,0.99-1.39,1.4
	C212.73,70.75,213.1,70.29,213.34,70.12 M215.47,70.85c0.21-0.23,0.53-0.47,0.61-0.47c0.07,0,0.04,0.14-0.02,0.5l-0.31,1.65
	c-0.1,0.55-0.2,1.09-0.33,1.65l0.92-0.27h0.01c0.05-0.56,0.25-1.67,0.32-1.9c0.33-0.69,1.2-1.69,1.49-1.69
	c0.2,0,0.17,0.24,0.09,0.67l-0.49,2.35c-0.13,0.6-0.03,0.83,0.23,0.83c0.18,0,0.92-0.43,1.39-0.95l-0.11-0.25
	c-0.23,0.21-0.54,0.42-0.62,0.42c-0.06,0-0.04-0.09,0.01-0.36c0.16-0.82,0.33-1.67,0.44-2.19c0.23-1.14-0.1-1.26-0.29-1.26
	c-0.13,0-0.28,0.05-0.51,0.18c-0.31,0.17-0.89,0.64-1.48,1.46h-0.02l0.15-0.73c0.11-0.56,0.1-0.91-0.18-0.91
	c-0.28,0-0.91,0.47-1.41,1.02L215.47,70.85z M219.97,73.52c0,0.37,0.21,0.64,0.51,0.64c0.31,0,0.59-0.27,0.59-0.74
	c0-0.38-0.21-0.65-0.51-0.65C220.22,72.77,219.97,73.08,219.97,73.52"/>
</svg>
